HIERARCHY
ROOT Hips
{
	OFFSET 0.00000 0.00000 0.00000
	CHANNELS 6 Xposition Yposition Zposition Zrotation Yrotation Xrotation 
	JOINT LHipJoint
	{
		OFFSET 0 0 0
		CHANNELS 3 Zrotation Yrotation Xrotation
		JOINT LeftHip
		{
			OFFSET 1.77779 -1.88989 0.48267
			CHANNELS 3 Zrotation Yrotation Xrotation
			JOINT LeftKnee
			{
				OFFSET 2.53442 -6.96327 0.00000
				CHANNELS 3 Zrotation Yrotation Xrotation
				JOINT LeftAnkle
				{
					OFFSET 2.71068 -7.44755 0.00000
					CHANNELS 3 Zrotation Yrotation Xrotation
					JOINT LeftToe
					{
						OFFSET 0.17992 -0.49431 2.22524
						CHANNELS 3 Zrotation Yrotation Xrotation
						End Site
						{
							OFFSET 0.00000 -0.00000 1.14687
						}
					}
				}
			}
		}
	}
	JOINT RHipJoint
	{
		OFFSET 0 0 0
		CHANNELS 3 Zrotation Yrotation Xrotation
		JOINT RightHip
		{
			OFFSET -1.58469 -1.88989 0.48267
			CHANNELS 3 Zrotation Yrotation Xrotation
			JOINT RightKnee
			{
				OFFSET -2.60386 -7.15404 0.00000
				CHANNELS 3 Zrotation Yrotation Xrotation
				JOINT RightAnkle
				{
					OFFSET -2.73334 -7.50979 0.00000
					CHANNELS 3 Zrotation Yrotation Xrotation
					JOINT RightToe
					{
						OFFSET -0.25618 -0.70384 2.21822
						CHANNELS 3 Zrotation Yrotation Xrotation
						End Site
						{
							OFFSET -0.00000 -0.00000 1.16381
						}
					}
				}
			}
		}
	}
	JOINT lowerback
	{
		OFFSET 0 0 0
		CHANNELS 3 Zrotation Yrotation Xrotation
		JOINT Chest
		{
			OFFSET 0.03410 2.01612 -0.22230
			CHANNELS 3 Zrotation Yrotation Xrotation
			JOINT Chest2
			{
				OFFSET 0.03465 2.03012 0.00937
				CHANNELS 3 Zrotation Yrotation Xrotation
				JOINT lowerneck
				{
					OFFSET 0 0 0
					CHANNELS 3 Zrotation Yrotation Xrotation
					JOINT Neck
					{
						OFFSET -0.00219 1.70459 0.20857
						CHANNELS 3 Zrotation Yrotation Xrotation
						JOINT Head
						{
							OFFSET 0.02518 1.72339 -0.22179
							CHANNELS 3 Zrotation Yrotation Xrotation
							End Site
							{
								OFFSET 0.00282 1.74122 -0.09823
							}
						}
					}
				}
				JOINT LeftCollar
				{
					OFFSET 0 0 0
					CHANNELS 3 Zrotation Yrotation Xrotation
					JOINT LeftShoulder
					{
						OFFSET 3.36358 1.00547 -0.37661
CHANNELS 3 Zrotation Xrotation Yrotation
						JOINT LeftElbow
						{
OFFSET 0 -5.065070 0.000000
CHANNELS 3 Zrotation Xrotation Yrotation
							JOINT LeftWrist
							{
OFFSET 0 -3.601960 0.000000
CHANNELS 3 Zrotation Xrotation Yrotation
								JOINT lhand
								{
									OFFSET 0 0 0
CHANNELS 3 Zrotation Xrotation Yrotation
									JOINT LFingers
									{
OFFSET 0 -0.450350 0.000000
CHANNELS 3 Zrotation Xrotation Yrotation
										End Site
										{
OFFSET 0 -0.363080 0.000000
										}
									}
								}
								JOINT LThumb
								{
OFFSET 0 0.000000 0.000000
CHANNELS 3 Zrotation Xrotation Yrotation
									End Site
									{
OFFSET 0 -0.368620 0.368620
									}
								}
							}
						}
					}
				}
				JOINT RightCollar
				{
					OFFSET 0 0 0
					CHANNELS 3 Zrotation Yrotation Xrotation
					JOINT RightShoulder
					{
						OFFSET -3.50159 0.80383 -0.71526
CHANNELS 3 Zrotation Xrotation Yrotation
						JOINT RightElbow
						{
OFFSET 0 -5.363940 0.000000
CHANNELS 3 Zrotation Xrotation Yrotation
							JOINT RightWrist
							{
OFFSET 0 -3.580350 0.000000
CHANNELS 3 Zrotation Xrotation Yrotation
								JOINT rhand
								{
									OFFSET 0 0 0
CHANNELS 3 Zrotation Xrotation Yrotation
									JOINT RFingers
									{
OFFSET 0 -0.663750 0.000000
CHANNELS 3 Zrotation Xrotation Yrotation
										End Site
										{
OFFSET 0 -0.535130 0.000000
										}
									}
								}
								JOINT RThumb
								{
OFFSET 0 0.000000 0.000000
CHANNELS 3 Zrotation Xrotation Yrotation
									End Site
									{
OFFSET 0 -0.543300 0.543300
									}
								}
							}
						}
					}
				}
			}
		}
	}
}
MOTION
Frames: 12
Frame Time: .0083333
0.5126 17.9307 -15.0481 -2.3679 4.0106 0.0111 0.0000 0.0000 0.0000 -11.4474 -5.1069 -16.7700 5.1031 13.4989 41.2660 0.5490 -4.1606 -13.1991 0.4460 -4.2847 -11.8790 0.0000 0.0000 0.0000 25.7768 9.6770 -11.7853 -4.0162 -12.1819 36.3786 -0.5955 -13.3212 -24.8128 -0.0948 -1.9862 5.4675 3.5813 -1.1726 10.6325 3.3068 -0.9757 1.3771 1.5754 -0.5160 -4.5288 -1.9801 -3.3794 -10.3987 -3.4119 -3.3574 33.0155 -1.4203 -2.1557 12.6551 0.0000 0.0000 0.0000 3.7182 1.4282 -23.9822 16.3959 -26.0545 3.8182 26.249 1.5446 -20.831 0.0 0.0 0.0 -7.1250 0.0 0.0 -2.4359 52.9517 0.4768 0.0000 0.0000 0.0000 -1.8163 -5.7855 11.2911 -12.6820 -20.8195 -2.3391 -19.3637 -3.0268 -21.9596 0.0 0.0 0.0 7.1250 0.0 -0.0 5.9433 6.9424 5.2101
0.5213 17.9267 -15.0307 -2.2048 4.0079 0.0001 0.0000 0.0000 0.0000 -11.5347 -5.1515 -17.0100 5.1602 13.5619 41.5102 0.4587 -5.3031 -12.0811 0.1965 -2.8542 -7.8732 0.0000 0.0000 0.0000 25.5609 9.5300 -11.7469 -4.0155 -12.1811 36.3755 -0.6076 -13.2159 -24.8031 -0.0901 -1.9356 5.3277 3.5219 -1.0585 10.5984 3.1881 -0.8442 1.4875 1.4625 -0.4495 -4.3950 -1.8916 -3.4633 -10.7354 -3.2975 -3.5252 33.1196 -1.4260 -2.2040 12.7683 -0.0000 0.0000 0.0000 3.8381 1.2201 -24.2993 16.4562 -26.1352 3.8447 26.1075 1.4815 -20.2847 0.0 0.0 0.0 -7.1250 0.0 0.0 -2.4438 52.3357 0.4415 -0.0000 0.0000 0.0000 -1.7825 -5.9659 10.8825 -12.6513 -20.7742 -2.3281 -19.3619 -2.3641 -21.0266 0.0 0.0 0.0 7.1250 0.0 -0.0 5.8758 7.9075 5.0389
0.5270 17.9382 -15.0142 -2.3101 4.0108 -0.1036 0.0000 0.0000 0.0000 -11.2977 -5.2718 -17.2028 5.2362 13.6449 41.8334 0.4423 -5.8450 -11.9184 0.1665 -2.6291 -7.2478 0.0000 0.0000 0.0000 25.7086 9.3461 -11.4222 -3.9407 -12.0811 36.0194 -0.5822 -13.2787 -24.6561 -0.1130 -2.1675 5.9688 3.5800 -1.0383 10.8920 3.2231 -0.7870 1.4021 1.4664 -0.4242 -4.6481 -1.8881 -3.4896 -10.5865 -3.2798 -3.5740 33.1713 -1.4240 -2.2225 12.7579 0.0000 -0.0000 0.0000 3.8401 1.5016 -24.5228 16.6197 -26.3537 3.917 26.2419 1.7997 -20.2136 0.0 0.0 0.0 -7.1250 0.0 0.0 -2.2889 52.2841 0.4106 0.0000 -0.0000 0.0000 -1.8975 -5.8532 10.7161 -12.5096 -20.5645 -2.2781 -19.368 -1.9855 -20.8058 0.0 0.0 0.0 7.1250 0.0 -0.0 5.8564 8.1353 4.9956
0.5332 17.9537 -15.0026 -2.5826 3.9128 -0.2693 0.0000 0.0000 0.0000 -10.8529 -5.3913 -17.4940 5.3021 13.7162 42.1122 0.4368 -6.1582 -11.8849 0.1415 -2.4247 -6.6809 0.0000 0.0000 0.0000 26.0255 9.2271 -11.0831 -3.8846 -12.0053 35.7507 -0.5852 -13.2529 -24.6541 -0.1110 -2.1478 5.9142 3.8306 -0.9722 11.3689 3.2755 -0.6307 1.2882 1.3693 -0.3550 -5.0355 -1.9174 -3.5739 -10.4021 -3.1977 -3.7216 33.2191 -1.4039 -2.2803 12.7398 0.0000 -0.0000 0.0000 3.8187 1.7542 -24.7535 16.7375 -26.5104 3.9694 26.4182 2.7234 -22.0567 0.0 0.0 0.0 -7.1250 0.0 0.0 -2.5894 54.3045 0.5924 0.0000 -0.0000 0.0000 -2.0203 -5.7727 10.4841 -12.2922 -20.2414 -2.2023 -19.4481 -1.775 -20.8662 0.0 0.0 0.0 7.1250 0.0 -0.0 5.8095 8.0614 4.9637
0.5395 17.9628 -14.9912 -2.6906 3.7611 -0.3676 0.0000 0.0000 0.0000 -10.5472 -5.6796 -17.8586 5.3599 13.7780 42.3555 0.4132 -6.5341 -11.6393 0.0364 -1.2316 -3.3864 0.0000 0.0000 0.0000 26.1615 9.2239 -10.7877 -3.8287 -11.9289 35.4809 -0.5746 -13.2828 -24.5965 -0.0788 -1.8108 4.9830 3.9245 -0.8776 11.6430 3.2841 -0.4746 1.2741 1.3066 -0.2816 -5.2029 -1.8770 -3.6290 -10.4717 -3.2054 -3.8058 33.2908 -1.4292 -2.3131 12.7824 -0.0000 -0.0000 0.0000 3.864 1.8261 -25.0864 16.7920 -26.5827 3.9938 26.5108 3.1005 -23.4086 0.0 0.0 0.0 -7.1250 0.0 0.0 -2.8945 55.7735 0.7656 -0.0000 -0.0000 0.0000 -2.0944 -5.7528 10.3908 -12.2545 -20.1852 -2.1893 -19.1379 -1.2538 -19.2535 0.0 0.0 0.0 7.1250 0.0 -0.0 5.9038 9.7754 4.8422
0.5509 17.9678 -14.9696 -2.6359 3.6452 -0.2453 0.0000 0.0000 0.0000 -10.4494 -5.9417 -18.3006 5.3942 13.8144 42.4991 0.4392 -6.5737 -11.9759 0.0273 -1.0663 -2.9312 0.0000 0.0000 0.0000 26.0605 9.2458 -10.7338 -3.7903 -11.8761 35.2949 -0.5755 -13.1809 -24.4953 -0.0712 -1.7211 4.7355 3.9743 -0.7901 11.4174 3.1383 -0.3770 1.3093 1.1053 -0.2342 -5.0407 -1.6015 -3.6401 -10.5595 -3.2237 -3.8802 33.2879 -1.4960 -2.3141 12.7891 0.0000 -0.0000 0.0000 4.1026 1.8829 -25.3448 16.9598 -26.8048 4.0692 26.5467 3.0663 -23.7483 0.0 0.0 0.0 -7.1250 0.0 0.0 -2.9645 56.1445 0.8108 0.0000 -0.0000 0.0000 -1.9432 -5.7584 10.3512 -12.2973 -20.249 -2.2041 -18.9911 -0.3631 -16.2776 0.0 0.0 0.0 7.1250 0.0 -0.0 5.8481 12.8851 4.4203
0.5613 17.9660 -14.9493 -2.5792 3.5459 -0.2818 0.0000 0.0000 0.0000 -10.4184 -5.9539 -18.5327 5.3979 13.8183 42.5145 0.5641 -6.2627 -13.4349 0.2355 -3.1235 -8.6227 0.0000 0.0000 0.0000 25.9862 9.2204 -10.5645 -3.7664 -11.8428 35.1783 -0.5723 -13.1022 -24.3844 -0.0924 -1.9607 5.3970 3.9565 -0.7265 11.3424 3.0326 -0.3085 1.3714 0.9916 -0.1997 -4.9331 -1.5055 -3.6359 -10.5010 -3.1601 -3.9187 33.2927 -1.4917 -2.3108 12.7764 -0.0000 -0.0000 0.0000 4.234 1.9255 -25.4307 17.0738 -26.9549 4.1207 26.7856 3.6004 -24.7647 0.0 0.0 0.0 -7.1250 0.0 0.0 -3.0455 57.2823 0.9168 -0.0000 -0.0000 0.0000 -1.8682 -5.9489 10.0822 -12.1465 -20.0239 -2.1522 -19.258 -0.2163 -16.6049 0.0 0.0 0.0 7.1250 0.0 -0.0 5.6845 12.514 4.3396
0.5731 17.9674 -14.9306 -2.5801 3.5049 -0.2962 0.0000 0.0000 0.0000 -10.3220 -6.1140 -18.7464 5.3626 13.7808 42.3665 0.5982 -5.9107 -13.7982 0.3379 -3.7356 -10.3339 0.0000 0.0000 0.0000 25.9505 9.0804 -10.4608 -3.7395 -11.8055 35.0472 -0.5716 -13.0270 -24.2983 -0.1167 -2.2021 6.0645 3.9709 -0.7263 11.3153 3.0083 -0.3104 1.3882 0.9576 -0.2006 -4.9005 -1.6886 -3.6562 -10.2279 -2.9270 -3.9879 33.1557 -1.3686 -2.3344 12.6717 0.0000 -0.0000 0.0000 4.1663 1.8945 -25.1947 16.9632 -26.8093 4.0707 26.8279 3.471 -24.0285 0.0 0.0 0.0 -7.1250 0.0 0.0 -2.7499 56.5054 0.7761 0.0000 -0.0000 0.0000 -1.9826 -6.0019 10.1169 -12.0765 -19.9193 -2.1283 -19.3638 -1.6325 -22.0009 0.0 0.0 0.0 7.1250 0.0 -0.0 5.9463 6.8997 5.2178
0.5872 17.9750 -14.9050 -2.6295 3.2867 -0.2293 0.0000 0.0000 0.0000 -10.1407 -6.3185 -18.8665 5.2904 13.7035 42.0627 0.6600 -6.1659 -14.4963 0.4380 -4.2468 -11.7720 0.0000 0.0000 0.0000 25.9700 9.1496 -10.3477 -3.7077 -11.7610 34.8915 -0.5643 -13.0452 -24.2552 -0.1055 -2.0941 5.7659 3.9490 -0.7267 11.2379 3.0638 -0.3151 1.3728 1.0280 -0.2020 -4.8734 -1.8696 -3.6003 -10.0314 -2.9277 -3.8691 33.1106 -1.3153 -2.3048 12.6183 0.0000 0.0000 0.0000 3.9642 1.9541 -24.7993 16.8053 -26.6004 3.9998 26.2563 1.7575 -20.6888 0.0 0.0 0.0 -7.1250 0.0 0.0 -2.3921 52.7997 0.4593 0.0000 0.0000 0.0000 -2.1619 -5.8937 10.4243 -12.1516 -20.0316 -2.1539 -19.5264 -1.0511 -20.3516 0.0 0.0 0.0 7.1250 0.0 -0.0 5.7237 8.5838 4.8301
0.6090 17.9889 -14.8619 -2.5773 2.9080 -0.0181 0.0000 0.0000 0.0000 -10.0999 -6.3870 -18.9667 5.1790 13.5826 41.5903 0.6345 -5.6950 -14.1948 0.2977 -3.5086 -9.6981 0.0000 0.0000 0.0000 25.8296 9.2613 -10.2841 -3.6708 -11.7090 34.7100 -0.5806 -12.8552 -24.1938 -0.0632 -1.6215 4.4608 3.8831 -0.6662 10.8251 3.0833 -0.2687 1.3743 1.0724 -0.1756 -4.6410 -1.9712 -3.5213 -10.0909 -3.0413 -3.6906 33.2717 -1.3236 -2.2535 12.7012 0.0000 0.0000 0.0000 3.7364 1.9479 -24.1799 16.6629 -26.4112 3.9362 25.6651 0.4989 -17.311 0.0 0.0 0.0 -7.1250 0.0 0.0 -2.2303 49.0418 0.2224 0.0000 0.0000 0.0000 -2.4084 -5.8721 10.9149 -12.1586 -20.042 -2.1563 -19.5046 -0.7051 -18.638 0.0 0.0 0.0 7.1250 0.0 -0.0 5.6287 10.3669 4.5465
0.6227 17.9914 -14.8510 -2.5818 3.0875 -0.0807 0.0000 0.0000 0.0000 -10.0057 -6.8841 -18.9857 5.0382 13.4267 40.9873 0.6276 -5.3309 -14.1086 0.2716 -3.3521 -9.2607 0.0000 0.0000 0.0000 25.7980 9.0467 -10.1297 -3.6340 -11.6568 34.5285 -0.5763 -12.8822 -24.1856 -0.0594 -1.5732 4.3275 3.8954 -0.7296 11.1706 3.0679 -0.3223 1.2175 1.0648 -0.2070 -4.9990 -2.0411 -3.5718 -9.8809 -3.0514 -3.7503 33.3817 -1.3211 -2.2901 12.7044 -0.0000 -0.0000 0.0000 3.7135 2.301 -24.1393 16.7424 -26.5169 3.9716 25.2909 0.014 -17.0715 0.0 0.0 0.0 -7.1250 0.0 0.0 -2.5481 48.7232 0.2341 -0.0000 -0.0000 0.0000 -2.4473 -5.6468 10.8647 -12.1508 -20.0304 -2.1537 -19.4318 0.0375 -16.0058 0.0 0.0 0.0 7.1250 0.0 -0.0 5.5414 13.1193 4.1589
0.6335 17.9909 -14.8376 -2.6321 2.9712 -0.1482 0.0000 0.0000 0.0000 -9.8187 -7.2066 -18.9460 4.8687 13.2344 40.2523 0.6214 -5.0254 -14.0360 0.2187 -3.0106 -8.3083 0.0000 0.0000 0.0000 25.8627 9.0560 -9.8683 -3.5886 -11.5918 34.3029 -0.5632 -12.9183 -24.1111 -0.0868 -1.9008 5.2316 3.8970 -0.6531 11.4673 3.0080 -0.2020 1.1480 0.9875 -0.1514 -5.2365 -2.1065 -3.6541 -9.7815 -2.8192 -3.9345 33.3531 -1.2420 -2.3501 12.6774 0.0000 -0.0000 0.0000 3.8653 2.4847 -24.3396 16.7729 -26.5574 3.9853 25.5338 0.921 -19.5844 0.0 0.0 0.0 -7.1250 0.0 0.0 -2.8562 51.4765 0.4559 0.0000 -0.0000 0.0000 -2.316 -5.4843 10.5759 -12.2222 -20.1371 -2.1782 -19.4815 0.0663 -15.9028 0.0 0.0 0.0 7.1250 0.0 -0.0 5.5035 13.2213 4.1184
